<svg xmlns="http://www.w3.org/2000/svg" viewBox="0 0 138.72 117.84"><defs><style>.cls-1{fill:#fff;stroke:#231f20;stroke-miterlimit:10;stroke-width:3px;}</style></defs><g id="Layer_2" data-name="Layer 2"><g id="Layer_1-2" data-name="Layer 1"><path class="cls-1" d="M62,5.08C53.85,0,44.36,1.45,36.53,2.79,29,4.08,23.5,5,18.05,8.55,5.6,16.62,1,33.17,1.54,45.51,2.6,69.5,23.68,91.15,44.4,92.26c11.49.62,20.77-5.18,22.13-6.06,2.09-1.35,13.76-8.86,12.24-16-1.38-6.46-12.89-9.2-19-9.84-3-.32-5.81.13-11.49.82-10.52,1.27-11.54,2.58-14,1.71-7.85-2.87-12.55-22.57-5.28-30.48C35,26,45,32.71,59.33,24.28c2.85-1.67,9.53-5.59,9.36-10.8C68.56,9.22,63.85,6.26,62,5.08Z"/><path class="cls-1" d="M48.77,58h0c.29.45,12.89,19.37,27.11,37,11.34,14,17,21,21.12,21.36,21.78,1.76,37.77-56.21,39.84-70.08,1.24-8.29-.94-11.21-2.28-12.42-2.86-2.59-7.24-2.17-9.36-1.8a65.31,65.31,0,0,0-15,14.78c-11.64,16-11.13,31.42-15.81,31.6-5.6.21-5.6-20.94-23-34.32-3-2.28-11-8.42-18.24-5.76a11.88,11.88,0,0,0-7.2,7.44C44.27,51.28,48.1,57,48.77,58Z"/></g></g></svg>